<svg xmlns="http://www.w3.org/2000/svg" width="1280" height="640" viewBox="0 0 1280 640">
  <defs>
    <filter id="round" x="-20%" y="-20%" width="140%" height="140%">
      <feGaussianBlur in="SourceGraphic" stdDeviation="3.5" result="b"/>
      <feColorMatrix in="b" type="matrix"
        values="0 0 0 0 0  0 0 0 0 0  0 0 0 0 0  0 0 0 18 -7" result="t"/>
      <feComposite in="SourceGraphic" in2="t" operator="atop"/>
    </filter>
    <radialGradient id="glow" cx="50%" cy="38%" r="62%">
      <stop offset="0%" stop-color="#A78BFA" stop-opacity="0.16"/>
      <stop offset="100%" stop-color="#A78BFA" stop-opacity="0"/>
    </radialGradient>
  </defs>

  <rect width="1280" height="640" fill="#1a1a2e"/>
  <rect width="1280" height="640" fill="url(#glow)"/>

  <svg x="200" y="214" width="132" height="132" viewBox="0 0 100 100" overflow="visible">
    <polygon filter="url(#round)" points="53.46,52 89.46,52 71.46,83.18" fill="#A78BFA"/>
    <polygon filter="url(#round)" points="50,54 68,85.18 32,85.18" fill="#A78BFA"/>
    <polygon filter="url(#round)" points="46.54,52 28.54,83.18 10.54,52" fill="#A78BFA"/>
    <polygon filter="url(#round)" points="46.54,48 10.54,48 28.54,16.82" fill="#A78BFA"/>
    <polygon filter="url(#round)" points="50,46 32,14.82 68,14.82" fill="#A78BFA"/>
    <polygon filter="url(#round)" points="53.46,48 71.46,16.82 89.46,48" fill="#A78BFA"/>
  </svg>

  <text x="376" y="280"
        font-family="'JetBrains Mono', 'Fira Code', 'Cascadia Code', 'Consolas', 'Courier New', monospace" font-size="104" font-weight="600"
        fill="#e0e2ed" letter-spacing="3" dominant-baseline="central">wavvon</text>

  <text x="200" y="424"
        font-family="'JetBrains Mono', 'Fira Code', 'Cascadia Code', 'Consolas', 'Courier New', monospace" font-size="46" font-weight="600"
        fill="#A78BFA" letter-spacing="2">/docs</text>

  <text x="200" y="484"
        font-family="'Inter', 'Segoe UI', 'Helvetica Neue', Arial, sans-serif" font-size="30" fill="#9ba1b8">Architecture, wire format, API spec, decisions</text>

  <rect x="0" y="632" width="1280" height="8" fill="#A78BFA"/>
</svg>